<?xml version="1.0" encoding="UTF-8" ?>
<svg version="1.1" width="60" height="60" xmlns="http://www.w3.org/2000/svg" shape-rendering="crispEdges">
<rect x="40" y="19" width="1" height="1" fill="#F1641F" />
<rect x="20" y="21" width="1" height="1" fill="#F1641F" />
<rect x="35" y="21" width="1" height="1" fill="#E09717" />
<rect x="36" y="21" width="1" height="1" fill="#F1641F" />
<rect x="19" y="22" width="1" height="1" fill="#850B08" />
<rect x="20" y="22" width="1" height="1" fill="#850B08" />
<rect x="36" y="22" width="1" height="1" fill="#E09717" />
<rect x="38" y="22" width="1" height="1" fill="#850B08" />
<rect x="43" y="22" width="1" height="1" fill="#E09717" />
<rect x="22" y="23" width="1" height="1" fill="#F1641F" />
<rect x="23" y="23" width="1" height="1" fill="#A4360F" />
<rect x="36" y="23" width="1" height="1" fill="#A4360F" />
<rect x="38" y="23" width="1" height="1" fill="#F1641F" />
<rect x="39" y="23" width="1" height="1" fill="#850B08" />
<rect x="16" y="24" width="1" height="1" fill="#F1641F" />
<rect x="17" y="24" width="1" height="1" fill="#E09717" />
<rect x="20" y="24" width="1" height="1" fill="#E09717" />
<rect x="26" y="24" width="1" height="1" fill="#4D0A0A" />
<rect x="27" y="24" width="1" height="1" fill="#4D0A0A" />
<rect x="28" y="24" width="1" height="1" fill="#4D0A0A" />
<rect x="33" y="24" width="1" height="1" fill="#4D0A0A" />
<rect x="34" y="24" width="1" height="1" fill="#4D0A0A" />
<rect x="35" y="24" width="1" height="1" fill="#4D0A0A" />
<rect x="38" y="24" width="1" height="1" fill="#A4360F" />
<rect x="39" y="24" width="1" height="1" fill="#E09717" />
<rect x="40" y="24" width="1" height="1" fill="#850B08" />
<rect x="16" y="25" width="1" height="1" fill="#E09717" />
<rect x="22" y="25" width="1" height="1" fill="#F1641F" />
<rect x="23" y="25" width="1" height="1" fill="#A4360F" />
<rect x="25" y="25" width="1" height="1" fill="#9A2727" />
<rect x="26" y="25" width="1" height="1" fill="#BD2C2C" />
<rect x="27" y="25" width="1" height="1" fill="#BD2C2C" />
<rect x="28" y="25" width="1" height="1" fill="#BD2C2C" />
<rect x="29" y="25" width="1" height="1" fill="#4D0A0A" />
<rect x="32" y="25" width="1" height="1" fill="#4D0A0A" />
<rect x="33" y="25" width="1" height="1" fill="#9A2727" />
<rect x="34" y="25" width="1" height="1" fill="#FA2727" />
<rect x="35" y="25" width="1" height="1" fill="#822222" />
<rect x="36" y="25" width="1" height="1" fill="#9A2727" />
<rect x="39" y="25" width="1" height="1" fill="#EBB41F" />
<rect x="40" y="25" width="1" height="1" fill="#E09717" />
<rect x="24" y="26" width="1" height="1" fill="#9A2727" />
<rect x="25" y="26" width="1" height="1" fill="#FA2727" />
<rect x="26" y="26" width="1" height="1" fill="#FA2727" />
<rect x="27" y="26" width="1" height="1" fill="#FA2727" />
<rect x="28" y="26" width="1" height="1" fill="#FA2727" />
<rect x="29" y="26" width="1" height="1" fill="#BD2C2C" />
<rect x="30" y="26" width="1" height="1" fill="#4D0A0A" />
<rect x="31" y="26" width="1" height="1" fill="#4D0A0A" />
<rect x="32" y="26" width="1" height="1" fill="#9A2727" />
<rect x="33" y="26" width="1" height="1" fill="#FA2727" />
<rect x="34" y="26" width="1" height="1" fill="#FA2727" />
<rect x="35" y="26" width="1" height="1" fill="#FA2727" />
<rect x="36" y="26" width="1" height="1" fill="#822222" />
<rect x="37" y="26" width="1" height="1" fill="#9A2727" />
<rect x="40" y="26" width="1" height="1" fill="#EBB41F" />
<rect x="41" y="26" width="1" height="1" fill="#850B08" />
<rect x="18" y="27" width="1" height="1" fill="#F1641F" />
<rect x="21" y="27" width="1" height="1" fill="#A4360F" />
<rect x="23" y="27" width="1" height="1" fill="#9A2727" />
<rect x="24" y="27" width="1" height="1" fill="#FA2727" />
<rect x="25" y="27" width="1" height="1" fill="#FA2727" />
<rect x="26" y="27" width="1" height="1" fill="#FA2727" />
<rect x="27" y="27" width="1" height="1" fill="#FFA0A0" />
<rect x="28" y="27" width="1" height="1" fill="#FA2727" />
<rect x="29" y="27" width="1" height="1" fill="#FA2727" />
<rect x="30" y="27" width="1" height="1" fill="#BD2C2C" />
<rect x="31" y="27" width="1" height="1" fill="#BD2C2C" />
<rect x="32" y="27" width="1" height="1" fill="#FA2727" />
<rect x="33" y="27" width="1" height="1" fill="#FA2727" />
<rect x="34" y="27" width="1" height="1" fill="#FA2727" />
<rect x="35" y="27" width="1" height="1" fill="#FA2727" />
<rect x="36" y="27" width="1" height="1" fill="#FA2727" />
<rect x="37" y="27" width="1" height="1" fill="#FA2727" />
<rect x="38" y="27" width="1" height="1" fill="#9A2727" />
<rect x="40" y="27" width="1" height="1" fill="#E09717" />
<rect x="41" y="27" width="1" height="1" fill="#850B08" />
<rect x="18" y="28" width="1" height="1" fill="#E09717" />
<rect x="19" y="28" width="1" height="1" fill="#850B08" />
<rect x="22" y="28" width="1" height="1" fill="#A4360F" />
<rect x="23" y="28" width="1" height="1" fill="#9A2727" />
<rect x="24" y="28" width="1" height="1" fill="#FA2727" />
<rect x="25" y="28" width="1" height="1" fill="#FA2727" />
<rect x="26" y="28" width="1" height="1" fill="#FFA0A0" />
<rect x="27" y="28" width="1" height="1" fill="#FFA0A0" />
<rect x="28" y="28" width="1" height="1" fill="#FA2727" />
<rect x="29" y="28" width="1" height="1" fill="#FA2727" />
<rect x="30" y="28" width="1" height="1" fill="#FA2727" />
<rect x="31" y="28" width="1" height="1" fill="#FA2727" />
<rect x="32" y="28" width="1" height="1" fill="#FA2727" />
<rect x="33" y="28" width="1" height="1" fill="#FA2727" />
<rect x="34" y="28" width="1" height="1" fill="#FA2727" />
<rect x="35" y="28" width="1" height="1" fill="#FA2727" />
<rect x="36" y="28" width="1" height="1" fill="#FA2727" />
<rect x="37" y="28" width="1" height="1" fill="#FA2727" />
<rect x="38" y="28" width="1" height="1" fill="#9A2727" />
<rect x="40" y="28" width="1" height="1" fill="#F1641F" />
<rect x="41" y="28" width="1" height="1" fill="#850B08" />
<rect x="22" y="29" width="1" height="1" fill="#A4360F" />
<rect x="23" y="29" width="1" height="1" fill="#9A2727" />
<rect x="24" y="29" width="1" height="1" fill="#FA2727" />
<rect x="25" y="29" width="1" height="1" fill="#FA2727" />
<rect x="26" y="29" width="1" height="1" fill="#FA2727" />
<rect x="27" y="29" width="1" height="1" fill="#FA2727" />
<rect x="28" y="29" width="1" height="1" fill="#FA2727" />
<rect x="29" y="29" width="1" height="1" fill="#FA2727" />
<rect x="30" y="29" width="1" height="1" fill="#FA2727" />
<rect x="31" y="29" width="1" height="1" fill="#FA2727" />
<rect x="32" y="29" width="1" height="1" fill="#FA2727" />
<rect x="33" y="29" width="1" height="1" fill="#FA2727" />
<rect x="34" y="29" width="1" height="1" fill="#FFA0A0" />
<rect x="35" y="29" width="1" height="1" fill="#FA2727" />
<rect x="36" y="29" width="1" height="1" fill="#FFA0A0" />
<rect x="37" y="29" width="1" height="1" fill="#FA2727" />
<rect x="38" y="29" width="1" height="1" fill="#9A2727" />
<rect x="40" y="29" width="1" height="1" fill="#F1641F" />
<rect x="41" y="29" width="1" height="1" fill="#850B08" />
<rect x="20" y="30" width="1" height="1" fill="#F1641F" />
<rect x="23" y="30" width="1" height="1" fill="#9A2727" />
<rect x="24" y="30" width="1" height="1" fill="#FA2727" />
<rect x="25" y="30" width="1" height="1" fill="#FA2727" />
<rect x="26" y="30" width="1" height="1" fill="#FA2727" />
<rect x="27" y="30" width="1" height="1" fill="#FA2727" />
<rect x="28" y="30" width="1" height="1" fill="#FA2727" />
<rect x="29" y="30" width="1" height="1" fill="#FA2727" />
<rect x="30" y="30" width="1" height="1" fill="#FA2727" />
<rect x="31" y="30" width="1" height="1" fill="#FA2727" />
<rect x="32" y="30" width="1" height="1" fill="#FA2727" />
<rect x="33" y="30" width="1" height="1" fill="#FFA0A0" />
<rect x="34" y="30" width="1" height="1" fill="#FA2727" />
<rect x="35" y="30" width="1" height="1" fill="#FFA0A0" />
<rect x="36" y="30" width="1" height="1" fill="#FA2727" />
<rect x="37" y="30" width="1" height="1" fill="#FA2727" />
<rect x="38" y="30" width="1" height="1" fill="#9A2727" />
<rect x="42" y="30" width="1" height="1" fill="#F1641F" />
<rect x="20" y="31" width="1" height="1" fill="#A4360F" />
<rect x="21" y="31" width="1" height="1" fill="#F1641F" />
<rect x="24" y="31" width="1" height="1" fill="#BD2C2C" />
<rect x="25" y="31" width="1" height="1" fill="#FA2727" />
<rect x="26" y="31" width="1" height="1" fill="#FA2727" />
<rect x="27" y="31" width="1" height="1" fill="#FA2727" />
<rect x="28" y="31" width="1" height="1" fill="#FA2727" />
<rect x="29" y="31" width="1" height="1" fill="#FA2727" />
<rect x="30" y="31" width="1" height="1" fill="#FA2727" />
<rect x="31" y="31" width="1" height="1" fill="#FA2727" />
<rect x="32" y="31" width="1" height="1" fill="#FA2727" />
<rect x="33" y="31" width="1" height="1" fill="#FA2727" />
<rect x="34" y="31" width="1" height="1" fill="#FA2727" />
<rect x="35" y="31" width="1" height="1" fill="#FA2727" />
<rect x="36" y="31" width="1" height="1" fill="#FA2727" />
<rect x="37" y="31" width="1" height="1" fill="#9A2727" />
<rect x="39" y="31" width="1" height="1" fill="#A4360F" />
<rect x="40" y="31" width="1" height="1" fill="#A4360F" />
<rect x="24" y="32" width="1" height="1" fill="#BD2C2C" />
<rect x="25" y="32" width="1" height="1" fill="#BD2C2C" />
<rect x="26" y="32" width="1" height="1" fill="#FA2727" />
<rect x="27" y="32" width="1" height="1" fill="#FA2727" />
<rect x="28" y="32" width="1" height="1" fill="#FA2727" />
<rect x="29" y="32" width="1" height="1" fill="#FA2727" />
<rect x="30" y="32" width="1" height="1" fill="#FA2727" />
<rect x="31" y="32" width="1" height="1" fill="#FA2727" />
<rect x="32" y="32" width="1" height="1" fill="#FA2727" />
<rect x="33" y="32" width="1" height="1" fill="#FA2727" />
<rect x="34" y="32" width="1" height="1" fill="#FA2727" />
<rect x="35" y="32" width="1" height="1" fill="#FA2727" />
<rect x="36" y="32" width="1" height="1" fill="#FA2727" />
<rect x="37" y="32" width="1" height="1" fill="#9A2727" />
<rect x="40" y="32" width="1" height="1" fill="#E09717" />
<rect x="41" y="32" width="1" height="1" fill="#850B08" />
<rect x="22" y="33" width="1" height="1" fill="#A4360F" />
<rect x="23" y="33" width="1" height="1" fill="#F1641F" />
<rect x="24" y="33" width="1" height="1" fill="#E09717" />
<rect x="25" y="33" width="1" height="1" fill="#BD2C2C" />
<rect x="26" y="33" width="1" height="1" fill="#BD2C2C" />
<rect x="27" y="33" width="1" height="1" fill="#FA2727" />
<rect x="28" y="33" width="1" height="1" fill="#FA2727" />
<rect x="29" y="33" width="1" height="1" fill="#FA2727" />
<rect x="30" y="33" width="1" height="1" fill="#FA2727" />
<rect x="31" y="33" width="1" height="1" fill="#FA2727" />
<rect x="32" y="33" width="1" height="1" fill="#FA2727" />
<rect x="33" y="33" width="1" height="1" fill="#FA2727" />
<rect x="34" y="33" width="1" height="1" fill="#FA2727" />
<rect x="35" y="33" width="1" height="1" fill="#FA2727" />
<rect x="36" y="33" width="1" height="1" fill="#9A2727" />
<rect x="37" y="33" width="1" height="1" fill="#050403" />
<rect x="38" y="33" width="1" height="1" fill="#F1641F" />
<rect x="40" y="33" width="1" height="1" fill="#850B08" />
<rect x="41" y="33" width="1" height="1" fill="#850B08" />
<rect x="23" y="34" width="1" height="1" fill="#A4360F" />
<rect x="24" y="34" width="1" height="1" fill="#E09717" />
<rect x="25" y="34" width="1" height="1" fill="#F6E137" />
<rect x="26" y="34" width="1" height="1" fill="#BD2C2C" />
<rect x="27" y="34" width="1" height="1" fill="#BD2C2C" />
<rect x="28" y="34" width="1" height="1" fill="#FA2727" />
<rect x="29" y="34" width="1" height="1" fill="#FA2727" />
<rect x="30" y="34" width="1" height="1" fill="#FA2727" />
<rect x="31" y="34" width="1" height="1" fill="#FA2727" />
<rect x="32" y="34" width="1" height="1" fill="#FA2727" />
<rect x="33" y="34" width="1" height="1" fill="#FA2727" />
<rect x="34" y="34" width="1" height="1" fill="#FA2727" />
<rect x="35" y="34" width="1" height="1" fill="#9A2727" />
<rect x="36" y="34" width="1" height="1" fill="#E09717" />
<rect x="37" y="34" width="1" height="1" fill="#A4360F" />
<rect x="38" y="34" width="1" height="1" fill="#F1641F" />
<rect x="24" y="35" width="1" height="1" fill="#A4360F" />
<rect x="25" y="35" width="1" height="1" fill="#EBB41F" />
<rect x="26" y="35" width="1" height="1" fill="#F6E137" />
<rect x="27" y="35" width="1" height="1" fill="#BD2C2C" />
<rect x="28" y="35" width="1" height="1" fill="#FA2727" />
<rect x="29" y="35" width="1" height="1" fill="#FA2727" />
<rect x="30" y="35" width="1" height="1" fill="#FA2727" />
<rect x="31" y="35" width="1" height="1" fill="#FA2727" />
<rect x="32" y="35" width="1" height="1" fill="#FA2727" />
<rect x="33" y="35" width="1" height="1" fill="#BD2C2C" />
<rect x="34" y="35" width="1" height="1" fill="#9A2727" />
<rect x="35" y="35" width="1" height="1" fill="#EBB41F" />
<rect x="36" y="35" width="1" height="1" fill="#A4360F" />
<rect x="38" y="35" width="1" height="1" fill="#850B08" />
<rect x="39" y="35" width="1" height="1" fill="#F1641F" />
<rect x="25" y="36" width="1" height="1" fill="#F1641F" />
<rect x="26" y="36" width="1" height="1" fill="#EBB41F" />
<rect x="27" y="36" width="1" height="1" fill="#F6E137" />
<rect x="28" y="36" width="1" height="1" fill="#BD2C2C" />
<rect x="29" y="36" width="1" height="1" fill="#BD2C2C" />
<rect x="30" y="36" width="1" height="1" fill="#FA2727" />
<rect x="31" y="36" width="1" height="1" fill="#FA2727" />
<rect x="32" y="36" width="1" height="1" fill="#FA2727" />
<rect x="33" y="36" width="1" height="1" fill="#9A2727" />
<rect x="34" y="36" width="1" height="1" fill="#F6E137" />
<rect x="35" y="36" width="1" height="1" fill="#F6E137" />
<rect x="36" y="36" width="1" height="1" fill="#850B08" />
<rect x="26" y="37" width="1" height="1" fill="#850B08" />
<rect x="27" y="37" width="1" height="1" fill="#A4360F" />
<rect x="28" y="37" width="1" height="1" fill="#E09717" />
<rect x="29" y="37" width="1" height="1" fill="#BD2C2C" />
<rect x="30" y="37" width="1" height="1" fill="#FA2727" />
<rect x="31" y="37" width="1" height="1" fill="#FA2727" />
<rect x="32" y="37" width="1" height="1" fill="#9A2727" />
<rect x="33" y="37" width="1" height="1" fill="#EBB41F" />
<rect x="34" y="37" width="1" height="1" fill="#E09717" />
<rect x="35" y="37" width="1" height="1" fill="#850B08" />
<rect x="27" y="38" width="1" height="1" fill="#850B08" />
<rect x="28" y="38" width="1" height="1" fill="#F6E137" />
<rect x="29" y="38" width="1" height="1" fill="#F6E137" />
<rect x="30" y="38" width="1" height="1" fill="#9A2727" />
<rect x="31" y="38" width="1" height="1" fill="#9A2727" />
<rect x="32" y="38" width="1" height="1" fill="#F6E137" />
<rect x="33" y="38" width="1" height="1" fill="#EBB41F" />
<rect x="34" y="38" width="1" height="1" fill="#A4360F" />
<rect x="28" y="39" width="1" height="1" fill="#A4360F" />
<rect x="29" y="39" width="1" height="1" fill="#850B08" />
<rect x="30" y="39" width="1" height="1" fill="#F6E137" />
<rect x="31" y="39" width="1" height="1" fill="#F6E137" />
<rect x="32" y="39" width="1" height="1" fill="#A4360F" />
<rect x="33" y="39" width="1" height="1" fill="#850B08" />
<rect x="29" y="40" width="1" height="1" fill="#850B08" />
<rect x="30" y="40" width="1" height="1" fill="#850B08" />
<rect x="31" y="40" width="1" height="1" fill="#850B08" />
</svg>